<svg width="26" height="26" viewBox="0 0 26 26" fill="none" xmlns="http://www.w3.org/2000/svg">
    <g filter="url(#filter0_d)">
        <circle cx="13" cy="13" r="11" fill="url(#paint0_linear)"/>
        <circle cx="13" cy="13" r="9" fill="url(#paint1_linear)"/>
        <circle cx="13" cy="13" r="11" fill="#FF9255"/>
        <circle cx="13" cy="13" r="9" fill="url(#paint2_linear)"/>
        <mask id="mask0" style="mask-type:alpha" maskUnits="userSpaceOnUse" x="2" y="2" width="22" height="22">
            <circle cx="13" cy="13" r="11" fill="url(#paint3_linear)"/>
        </mask>
        <g mask="url(#mask0)">
            <path d="M15 14C21 7 27 7 29 8L33 11L30 27L6 34L-6 28L-8 14C-3 17 9 22 15 14Z" fill="url(#paint4_linear)"/>
            <path d="M12 13C0 5 -4 7 -6 8L-9 13L-3 27L21 29L32 22L30 7C26 11 20 19 12 13Z" fill="url(#paint5_linear)"/>
        </g>
    </g>
    <defs>
        <filter id="filter0_d" x="0" y="0" width="26" height="26" filterUnits="userSpaceOnUse" color-interpolation-filters="sRGB">
            <feOffset dx="0.6" dy="0.3"/>
            <feGaussianBlur stdDeviation="1"/>
            <feColorMatrix type="matrix" values="0 0 0 0 0 0 0 0 0 0 0 0 0 0 0 0 0 0 0.25 0"/>
            <feBlend mode="normal" in2="BackgroundImageFix" result="effect1_dropShadow"/>
            <feBlend mode="normal" in="SourceGraphic" in2="effect1_dropShadow" result="shape"/>
        </filter>
        <linearGradient id="paint0_linear" x1="13" y1="2" x2="13" y2="24" gradientUnits="userSpaceOnUse">
            <stop stop-color="#FFC123"/>
            <stop offset="1" stop-color="#F8832E"/>
        </linearGradient>
        <linearGradient id="paint1_linear" x1="13" y1="4" x2="13" y2="22" gradientUnits="userSpaceOnUse">
            <stop stop-color="#FFBF24"/>
            <stop offset="1" stop-color="#F4924B"/>
        </linearGradient>
        <linearGradient id="paint2_linear" x1="13" y1="4" x2="13" y2="22" gradientUnits="userSpaceOnUse">
            <stop stop-color="#FFBF24"/>
            <stop offset="1" stop-color="#F4924B"/>
        </linearGradient>
        <linearGradient id="paint3_linear" x1="13" y1="2" x2="13" y2="24" gradientUnits="userSpaceOnUse">
            <stop stop-color="#FFC123"/>
            <stop offset="1" stop-color="#F8832E"/>
        </linearGradient>
    </defs>
</svg>
